<svg xmlns="http://www.w3.org/2000/svg"  viewBox="0 0 30 30" width="60px" height="60px"><path d="M 15 3 C 7.832 3 2 7.9188438 2 13.964844 C 2 17.461844 3.9979687 20.749828 7.2929688 22.798828 C 7.1919688 22.995828 7.0672656 23.188812 6.9472656 23.382812 C 6.3672656 24.318812 5.2265625 25.587891 5.2265625 25.587891 C 4.6885625 26.364891 5.3188437 27.205187 6.3398438 27.117188 C 7.4008437 27.026187 8.2667344 26.798594 9.1777344 26.433594 C 10.408734 25.939594 11.635781 25.441375 12.550781 24.734375 C 12.607647 24.74354 12.665638 24.74739 12.722656 24.755859 C 14.240757 25.979238 16.26846 26.734375 18.5 26.734375 C 19.027 26.734375 19.554172 26.691469 20.076172 26.605469 C 20.555172 26.883469 21.168078 27.23175 21.705078 27.46875 C 22.475078 27.80775 23.162859 28.138219 24.380859 28.324219 C 25.308859 28.466219 26.043922 27.63875 25.544922 26.84375 C 24.970922 26.29975 24.531859 25.625016 24.255859 24.791016 C 25.996859 23.412016 27 21.465188 27 19.367188 C 27 19.01627 26.96127 18.673913 26.90625 18.335938 C 27.604473 16.996387 28 15.520442 28 13.964844 C 28 7.9188437 22.168 3 15 3 z M 18.5 14 C 22.084 14 25 16.408188 25 19.367188 C 25 21.183187 23.892109 22.863328 22.037109 23.861328 C 21.813109 23.982328 21.716547 24.247516 21.810547 24.478516 C 21.950547 24.823516 22.110109 25.139922 22.287109 25.419922 C 21.687109 25.215922 21.117156 24.931469 20.660156 24.605469 C 20.577156 24.546469 20.481859 24.515625 20.380859 24.515625 C 20.343859 24.515625 20.305531 24.518344 20.269531 24.527344 C 19.687531 24.663344 19.092 24.732422 18.5 24.732422 C 14.916 24.732422 12 22.324234 12 19.365234 C 12 16.407234 14.916 14 18.5 14 z M 15.412109 18.3125 A 1.087 1.087 0 1 0 15.412109 20.486328 A 1.087 1.087 0 1 0 15.412109 18.3125 z M 18.537109 18.3125 A 1.087 1.087 0 1 0 18.537109 20.486328 A 1.087 1.087 0 1 0 18.537109 18.3125 z M 21.587891 18.3125 A 1.087 1.087 0 1 0 21.587891 20.486328 A 1.087 1.087 0 1 0 21.587891 18.3125 z"/></svg>